<svg width="32" height="31" viewBox="0 0 32 31" fill="none" xmlns="http://www.w3.org/2000/svg">
<path d="M24.0713 29.0334C27.8975 29.0334 30.9993 25.9316 30.9993 22.1054C30.9993 18.2791 27.8975 15.1773 24.0713 15.1773C20.245 15.1773 17.1432 18.2791 17.1432 22.1054C17.1432 25.9316 20.245 29.0334 24.0713 29.0334Z" stroke="#007CAD" stroke-width="2" stroke-linecap="round" stroke-linejoin="round"/>
<path d="M27.1593 20.0907L23.8049 24.5639C23.7303 24.6631 23.6353 24.7452 23.5263 24.8045C23.4173 24.8638 23.2968 24.899 23.173 24.9078C23.0492 24.9165 22.925 24.8986 22.8087 24.8552C22.6924 24.8118 22.5868 24.744 22.499 24.6563L20.767 22.9243" stroke="#007CAD" stroke-width="2" stroke-linecap="round" stroke-linejoin="round"/>
<path d="M14.4316 24.2815H4.58176C3.63182 24.2815 2.72079 23.9041 2.04907 23.2324C1.37736 22.5607 1 21.6496 1 20.6998V9.95447C1 9.00453 1.37736 8.0935 2.04907 7.42179C2.72079 6.75007 3.63182 6.37271 4.58176 6.37271H22.4906C23.4405 6.37271 24.3515 6.75007 25.0232 7.42179C25.6949 8.0935 26.0723 9.00453 26.0723 9.95447V13.5362" stroke="#007CAD" stroke-width="2" stroke-linecap="round" stroke-linejoin="round"/>
<path d="M9.05878 6.37264V2.79088C9.05878 2.31592 9.24746 1.86039 9.58331 1.52454C9.91916 1.18868 10.3747 1 10.8497 1H16.2223C16.6972 1 17.1528 1.18868 17.4887 1.52454C17.8245 1.86039 18.0132 2.31592 18.0132 2.79088V6.37264" stroke="#007CAD" stroke-width="2" stroke-linecap="round" stroke-linejoin="round"/>
</svg>
