<svg width="32" height="32" viewBox="0 0 32 32" fill="none" xmlns="http://www.w3.org/2000/svg">
<path d="M15.8379 1V2.93548" stroke="#007CAD" stroke-width="2" stroke-linecap="round" stroke-linejoin="round"/>
<path d="M5.90234 10.8064H8.09589" stroke="#007CAD" stroke-width="2" stroke-linecap="round" stroke-linejoin="round"/>
<path d="M25.6446 10.8064H23.5801" stroke="#007CAD" stroke-width="2" stroke-linecap="round" stroke-linejoin="round"/>
<path d="M7.70898 4.48389L9.51544 6.16131" stroke="#007CAD" stroke-width="2" stroke-linecap="round" stroke-linejoin="round"/>
<path d="M23.9686 4.48389L22.1621 6.16131" stroke="#007CAD" stroke-width="2" stroke-linecap="round" stroke-linejoin="round"/>
<path d="M20.7419 10.8065C20.7419 8.09678 18.5484 5.90323 15.8387 5.90323C13.129 5.90323 10.9355 8.09678 10.9355 10.8065C10.9355 12.7419 12.0968 14.5484 13.9032 15.3226V17.7742H17.9032V15.3226C19.5806 14.5484 20.7419 12.871 20.7419 10.8065Z" stroke="#007CAD" stroke-width="2" stroke-linecap="round" stroke-linejoin="round"/>
<path d="M13.9023 20.7419H17.7733" stroke="#007CAD" stroke-width="2" stroke-linecap="round" stroke-linejoin="round"/>
<path d="M24.9995 18.8064C26.935 18.8064 28.4834 20.3548 28.4834 22.2903C28.4834 24.2257 26.935 25.7741 24.9995 25.7741C23.064 25.7741 21.5156 24.2257 21.5156 22.2903C21.5156 20.3548 23.193 18.8064 24.9995 18.8064Z" stroke="#007CAD" stroke-width="2" stroke-linecap="round" stroke-linejoin="round"/>
<path d="M30.6769 30.5484C29.6446 27.4517 26.2898 25.9033 23.193 26.9355C21.5156 27.5807 20.2252 28.871 19.5801 30.5484" stroke="#007CAD" stroke-width="2" stroke-linecap="round" stroke-linejoin="round"/>
<path d="M6.54839 18.8065C8.48387 18.8065 10.0323 20.3548 10.0323 22.2903C10.0323 24.2258 8.48387 25.7742 6.54839 25.7742C4.6129 25.7742 3.06451 24.2258 3.06451 22.2903C3.06451 20.3548 4.6129 18.8065 6.54839 18.8065Z" stroke="#007CAD" stroke-width="2" stroke-linecap="round" stroke-linejoin="round"/>
<path d="M12.0968 30.5484C11.0645 27.4516 7.70968 25.9032 4.6129 26.9355C2.93548 27.5806 1.64516 28.871 1 30.5484" stroke="#007CAD" stroke-width="2" stroke-linecap="round" stroke-linejoin="round"/>
</svg>
