<svg width="34" height="27" viewBox="0 0 34 27" fill="none" xmlns="http://www.w3.org/2000/svg">
<path d="M21.3105 8.46667H25.5345" stroke="#007CAD" stroke-width="2" stroke-linecap="round" stroke-linejoin="round"/>
<path d="M21.2676 12.7333H28.7342" stroke="#007CAD" stroke-width="2" stroke-linecap="round" stroke-linejoin="round"/>
<path fill-rule="evenodd" clip-rule="evenodd" d="M12.5203 5.26672C14.2981 5.26672 15.7203 6.68895 15.7203 8.46672C15.7203 10.2303 14.2981 11.6667 12.5203 11.6667C10.7568 11.6667 9.32031 10.2303 9.32031 8.46672C9.32031 6.68895 10.7568 5.26672 12.5203 5.26672Z" stroke="#007CAD" stroke-width="2" stroke-linecap="round" stroke-linejoin="round"/>
<path d="M18.0674 15.9334C16.3038 12.8614 12.3785 11.8231 9.32073 13.5867C8.35361 14.1556 7.54295 14.952 6.98828 15.9334" stroke="#007CAD" stroke-width="2" stroke-linecap="round" stroke-linejoin="round"/>
<path fill-rule="evenodd" clip-rule="evenodd" d="M22.3333 1H11.6667C5.77867 1.01422 1.01422 5.77867 1 11.6667C1.01422 14.1982 1.93867 16.6444 3.61689 18.5644L1 25.5333L11.4676 22.3049C11.5387 22.3049 11.5956 22.3333 11.6667 22.3333H22.3333C28.2213 22.3333 33 17.5547 33 11.6667C33 5.76444 28.2213 1 22.3333 1Z" stroke="#007CAD" stroke-width="2" stroke-linecap="round" stroke-linejoin="round"/>
</svg>
