<svg width="32" height="33" viewBox="0 0 32 33" fill="none" xmlns="http://www.w3.org/2000/svg">
<path d="M15 24.5333C14.9258 26.3179 14.1475 28.0003 12.8355 29.2123C11.5236 30.4243 9.78485 31.0671 8 31C6.21516 31.0671 4.47642 30.4243 3.16446 29.2123C1.8525 28.0003 1.07422 26.3179 1 24.5333V11.588C1.02914 10.8739 1.34024 10.2004 1.86511 9.71527C2.38997 9.23015 3.08578 8.97292 3.8 8.99999H12.2C12.9142 8.97292 13.61 9.23015 14.1349 9.71527C14.6598 10.2004 14.9709 10.8739 15 11.588V24.5333Z" stroke="#007CAD" stroke-width="2" stroke-linecap="round" stroke-linejoin="round"/>
<path d="M1 16H15" stroke="#007CAD" stroke-width="2" stroke-linecap="round" stroke-linejoin="round"/>
<path d="M7.99951 16V7C7.99951 5.4087 8.63165 3.88258 9.75687 2.75736C10.8821 1.63214 12.4082 1 13.9995 1C15.5908 1 17.1169 1.63214 18.2422 2.75736C19.3674 3.88258 19.9995 5.4087 19.9995 7V26C19.9995 27.0609 20.4209 28.0783 21.1711 28.8284C21.9212 29.5786 22.9386 30 23.9995 30C25.0604 30 26.0778 29.5786 26.8279 28.8284C27.5781 28.0783 27.9995 27.0609 27.9995 26V23" stroke="#007CAD" stroke-width="2" stroke-linecap="round" stroke-linejoin="round"/>
<path d="M27.999 1L24.999 6V20.3333C25.0458 21.0838 25.3874 21.7854 25.9494 22.285C26.5114 22.7846 27.2482 23.0416 27.999 23C28.7498 23.0416 29.4866 22.7846 30.0486 22.285C30.6107 21.7854 30.9523 21.0838 30.999 20.3333V6L27.999 1Z" stroke="#007CAD" stroke-width="2" stroke-linecap="round" stroke-linejoin="round"/>
<path d="M24.999 19H30.999" stroke="#007CAD" stroke-width="2" stroke-linecap="round" stroke-linejoin="round"/>
<path d="M24.999 7.99997H30.999" stroke="#007CAD" stroke-width="2" stroke-linecap="round" stroke-linejoin="round"/>
</svg>
