<svg width="33" height="32" viewBox="0 0 33 32" fill="none" xmlns="http://www.w3.org/2000/svg">
<path d="M21.0098 13.0017L15.7031 20.0817C15.3698 20.5217 14.7431 20.615 14.3031 20.2817C14.2631 20.255 14.2231 20.215 14.1964 20.1884L11.0098 17.0017" stroke="#007CAD" stroke-width="2" stroke-linecap="round" stroke-linejoin="round"/>
<path fill-rule="evenodd" clip-rule="evenodd" d="M14.3161 1.81508C15.0628 0.881752 16.4362 0.721752 17.3695 1.48175C17.4895 1.57508 17.6095 1.69508 17.7028 1.81508L19.7161 4.32175C20.1828 4.89509 20.9161 5.20175 21.6495 5.12175L24.8495 4.77508C26.0361 4.64175 27.1162 5.49509 27.2495 6.69509C27.2628 6.85509 27.2628 7.01509 27.2495 7.17509L26.9028 10.3751C26.8228 11.1084 27.1162 11.8418 27.7028 12.2951L30.2095 14.3218C31.1428 15.0684 31.2895 16.4418 30.5428 17.3751C30.4362 17.4951 30.3295 17.6018 30.2095 17.7084L27.6895 19.7084C27.1162 20.1751 26.8095 20.8951 26.8895 21.6418L27.2362 24.8418C27.3695 26.0284 26.5162 27.1084 25.3162 27.2418C25.1562 27.2551 24.9962 27.2551 24.8362 27.2418L21.6361 26.8951C20.9028 26.8151 20.1695 27.1084 19.7161 27.6951L17.7028 30.1884C16.9562 31.1218 15.5828 31.2684 14.6495 30.5218C14.5295 30.4284 14.4095 30.3084 14.3161 30.1884L12.3028 27.6818C11.8362 27.1084 11.1028 26.8018 10.3695 26.8818L7.16948 27.2284C5.98282 27.3618 4.90282 26.5084 4.76948 25.3218C4.75615 25.1484 4.75615 24.9884 4.76948 24.8284L5.11615 21.6284C5.19615 20.8951 4.90282 20.1618 4.31615 19.6951L1.80949 17.6818C0.876152 16.9351 0.729485 15.5618 1.47615 14.6284C1.58282 14.5084 1.68949 14.4018 1.80949 14.2951L4.31615 12.2818C4.90282 11.8151 5.19615 11.0951 5.11615 10.3618L4.76948 7.16175C4.63615 5.96175 5.50282 4.89508 6.68949 4.76175C6.84949 4.73508 7.00948 4.73508 7.16948 4.76175L10.3695 5.10842C11.1028 5.18842 11.8362 4.88175 12.3028 4.30842L14.3161 1.81508Z" stroke="#007CAD" stroke-width="2" stroke-linecap="round" stroke-linejoin="round"/>
</svg>
